<?xml version="1.0" encoding="UTF-8"?>
<svg id="UL" xmlns="http://www.w3.org/2000/svg" viewBox="0 0 800 800" fill="#F3BF22">
    <g id="Logo">
    <path d="M799.95,397.64C796.09,156.03,544.92,.28,327.51,104.68c-128.08,61.5-207.48,207.14-181.88,340.57,19.59,102.13,80.47,172.07,180.04,202.35,97.96,29.79,185.65,5.84,258.31-66.13,70.2-69.53,93.15-174.96,58.91-255.66-43.56-102.66-171.49-144.93-260.1-85.66-15.54,10.4-27.91,22.77-35.62,38.29h-.08c-6.09,10.7-4.57,25.54-4.57,25.54v42.91s-17.52,29.45-17.14,53.93c0,0-5.71,15.3,23.24,32.13,0,0,10.12,7.65,14.96,37.48,0,0,5.67,15.56,26.24,16.66,.68,6.95,6.92,73.88-4.63,92.73,0,0,10.67-4.59,15.24-26.01,0,0,2.29,15.3,14.86,26.01,0,0-9.52-27.54-5.33-93.32h-1.03c9.35-.69,23.67-3.94,29.6-16.83,0,0,0-26.01,15.24-38.25,0,0,22.86-16.83,21.33-32.13,0,0,4.99-29.83-18.83-51.63,0,0-.97-29.45,2.07-43.22h-.06c.89-4.36,2.5-7.48,3.57-9.19,.02-.03,.52-.63,1.3-1.76,.02,0,.03,0,.05,.01,6.64-11.32,20.01-15.73,36.11-11.29,8.22,2.27,16.2,6.71,23.31,11.59,58.07,39.92,75.8,99.75,50.68,169.65-28.65,79.73-106.77,128.88-192.39,121.04-79.4-7.27-150.99-73.46-162.26-150.01-25.22-171.38,132-319.72,300.94-283.95,140.33,29.71,226.62,158.64,202.03,301.85-35.37,206.03-245.53,326.14-440.02,251.49-134.55-51.65-219.24-190.47-205.73-334.44,6.33-67.45,26.93-129.23,63.34-186.04,11.08-17.3,8.51-34.24-5.68-45.12-12.64-9.7-29.53-6.46-42.98,8.31-2.27,2.49-4.33,5.19-6.34,7.91C6.62,259.11-18.8,375.12,14,501.52c52.88,203.78,250.85,328.76,459.21,292.13,186.67-32.82,329.78-206.26,326.75-396.01Zm-444.26,10.83c-10.67-10.71-6.09-26.01-6.09-26.01,3.05-12.24,9.14-12.24,9.14-12.24-3.05,18.36,3.05,26.01,3.05,26.01,7.62,15.3,16.76,18.36,16.76,18.36-15.24,3.06-22.86-6.12-22.86-6.12Zm93.5-3.06s-7.62,9.18-22.86,6.12c0,0,9.14-3.06,16.76-18.36,0,0,6.09-7.65,3.05-26.01,0,0,6.09,0,9.14,12.24,0,0,4.57,15.3-6.09,26.01Z"/>
        <ellipse cx="356.24" cy="10.71" rx="10.67" ry="10.71"/>
        <ellipse cx="176.44" cy="107.09" rx="30.47" ry="30.6"/>
        <ellipse cx="226.72" cy="64.25" rx="21.33" ry="21.42"/>
        <ellipse cx="273.96" cy="36.72" rx="15.24" ry="15.3"/>
        <ellipse cx="318.15" cy="21.42" rx="12.19" ry="12.24"/>
    </g>
</svg>